<?xml version="1.0" standalone="no"?>
<!DOCTYPE svg PUBLIC "-//W3C//DTD SVG 20010904//EN"
 "http://www.w3.org/TR/2001/REC-SVG-20010904/DTD/svg10.dtd">
<svg version="1.0" xmlns="http://www.w3.org/2000/svg"
 width="634.000000pt" height="375.000000pt" viewBox="0 0 634.000000 375.000000"
 preserveAspectRatio="xMidYMid meet">

<g transform="translate(0.000000,375.000000) scale(0.100000,-0.100000)"
fill="#000000" stroke="none">
<path d="M2345 2851 c-139 -25 -252 -57 -541 -155 -333 -113 -640 -243 -632
-268 3 -7 16 -21 31 -31 l26 -20 118 45 c65 25 142 51 171 58 50 13 65 31 40
46 -14 9 76 44 327 129 294 99 537 155 670 155 87 0 105 -13 81 -57 -57 -109
-502 -415 -899 -618 -134 -69 -142 -83 -72 -116 64 -30 267 -211 253 -225 -2
-1 -61 -23 -131 -49 -383 -138 -789 -353 -904 -478 -50 -54 -83 -116 -83 -155
0 -42 38 -92 91 -119 109 -54 284 -52 504 7 493 131 752 386 666 656 -12 38
-24 74 -27 80 -3 7 34 22 98 39 151 40 168 44 168 39 0 -3 -14 -31 -30 -64
-54 -107 -50 -181 12 -221 59 -37 170 -8 325 86 42 25 76 45 77 45 1 0 0 -15
-2 -34 -7 -58 54 -84 121 -50 31 16 172 121 251 186 22 18 37 28 35 23 -3 -6
-17 -36 -33 -67 -40 -84 -43 -119 -13 -148 l24 -23 -19 -33 c-22 -38 7 -35
-553 -60 -211 -10 -355 -20 -363 -26 -7 -6 -12 -21 -10 -32 3 -20 7 -21 143
-16 77 3 233 5 348 5 114 0 207 3 207 6 0 3 -10 11 -22 17 -18 8 0 11 84 11
l107 1 -45 -79 c-61 -109 -121 -263 -136 -349 -11 -67 -11 -73 9 -99 14 -19
29 -28 49 -28 36 0 39 26 6 40 -21 9 -23 15 -17 49 12 82 146 378 204 454 16
21 25 22 431 31 393 8 1005 0 1064 -15 22 -5 26 -3 26 14 0 11 -8 23 -17 26
-50 15 -580 28 -991 25 -254 -2 -462 -1 -462 3 0 13 66 74 128 117 71 51 363
345 475 480 136 163 205 278 186 313 -17 31 -46 41 -87 27 -87 -29 -464 -464
-667 -771 -34 -52 -65 -75 -65 -48 0 26 58 134 126 237 53 79 74 119 69 132
-11 37 -34 31 -99 -24 l-65 -55 -25 25 c-18 18 -36 25 -64 25 -46 0 -89 -27
-179 -110 -119 -111 -416 -274 -503 -275 -38 0 -45 3 -48 21 -5 35 35 125 85
193 l48 63 63 -4 c63 -4 87 -18 77 -45 -7 -20 22 -38 39 -24 11 10 12 19 4 42
-12 35 -39 56 -92 70 l-38 10 28 31 c79 83 338 268 375 268 19 0 19 -1 3 -32
-24 -47 -161 -181 -210 -206 -25 -13 -50 -19 -65 -15 l-24 6 24 -27 c46 -50
106 -29 216 75 74 71 135 156 135 190 0 32 -40 69 -73 69 -85 -1 -296 -131
-440 -271 l-90 -88 -91 -16 c-50 -9 -132 -27 -183 -40 l-92 -25 -86 89 c-47
49 -104 101 -125 116 -40 28 -51 45 -27 45 30 0 428 234 650 382 109 73 219
167 258 221 52 71 34 153 -41 192 -39 20 -148 18 -275 -4z m1504 -493 c-47
-89 -437 -532 -568 -645 l-55 -48 94 125 c141 187 282 352 407 478 109 109
147 137 122 90z m-779 -467 c8 -17 -1 -29 -72 -88 -105 -88 -232 -183 -237
-178 -12 13 191 228 249 264 43 26 47 26 60 2z m-1078 -208 c67 -149 -12 -322
-204 -449 -180 -120 -497 -214 -724 -215 -122 0 -178 13 -200 46 -25 38 -10
73 59 140 151 148 505 334 907 476 74 26 136 48 138 48 2 1 13 -20 24 -46z"/>
<path d="M4055 1921 c-46 -21 -68 -38 -229 -175 -64 -54 -119 -97 -121 -94 -2
2 27 46 66 98 38 51 68 99 65 107 -9 22 -35 15 -83 -22 l-45 -35 -30 25 c-39
33 -83 32 -139 -3 -55 -36 -126 -113 -135 -146 -7 -31 16 -72 51 -88 31 -14
67 1 146 59 33 23 59 41 59 39 0 -3 -4 -16 -10 -31 -8 -20 -6 -29 10 -45 28
-28 40 -26 109 25 67 50 71 51 71 31 0 -8 16 -28 35 -45 47 -41 105 -42 214
-2 77 28 80 29 86 10 18 -55 114 -61 240 -15 65 24 66 24 78 4 7 -11 29 -28
49 -39 50 -26 214 -25 493 1 300 29 620 37 710 17 39 -8 79 -19 90 -23 20 -7
20 -7 1 14 -25 29 -92 48 -218 63 -127 15 -247 9 -648 -32 -168 -17 -329 -29
-358 -26 -99 7 -110 61 -19 90 30 9 64 28 77 42 22 23 22 25 6 50 -29 45 -98
25 -162 -47 -34 -39 -51 -50 -124 -73 -47 -14 -103 -27 -125 -28 -34 -2 -40 1
-40 18 0 22 35 43 128 76 61 22 82 46 73 85 -16 61 -121 32 -207 -58 -52 -53
-65 -60 -162 -93 -121 -41 -142 -43 -157 -14 -17 30 20 98 87 159 56 51 140
106 149 98 5 -6 -87 -97 -112 -111 -21 -12 -7 -27 25 -27 35 0 113 66 131 110
26 62 -42 90 -125 51z m-395 -131 c9 -17 3 -25 -52 -66 -80 -59 -147 -98 -155
-91 -20 20 143 177 183 177 7 0 18 -9 24 -20z m740 4 c0 -8 -111 -57 -116 -51
-8 7 78 57 99 57 9 0 17 -2 17 -6z"/>
<path d="M4630 1441 c0 -13 10 -20 31 -25 51 -10 89 -7 89 7 0 25 -24 37 -72
37 -40 0 -48 -3 -48 -19z"/>
<path d="M3779 1333 c-1 -5 -2 -38 -3 -75 -1 -48 3 -68 12 -68 8 0 12 22 12
75 0 43 -4 75 -10 75 -5 0 -11 -3 -11 -7z"/>
<path d="M3867 1321 c-7 -27 32 -131 49 -131 9 0 6 19 -12 72 -28 83 -30 86
-37 59z"/>
<path d="M3960 1331 c0 -12 70 -130 81 -137 22 -13 5 42 -27 91 -34 51 -54 68
-54 46z"/>
<path d="M4170 1265 c0 -53 4 -75 13 -75 8 0 12 14 11 43 -1 23 -2 57 -3 75
-1 17 -5 32 -11 32 -6 0 -10 -32 -10 -75z"/>
<path d="M4218 1333 c15 -6 16 -45 0 -61 -9 -9 -9 -12 0 -12 7 0 12 -11 12
-24 0 -13 7 -29 15 -36 13 -10 15 -9 15 9 0 12 -5 31 -10 41 -7 14 -7 25 2 39
14 23 -3 52 -31 50 -10 0 -11 -2 -3 -6z"/>
<path d="M4294 1316 c0 -13 4 -22 9 -19 10 6 9 43 -2 43 -5 0 -8 -11 -7 -24z"/>
<path d="M4454 1315 c1 -22 2 -23 13 -9 12 17 9 34 -7 34 -4 0 -7 -11 -6 -25z"/>
<path d="M4508 1265 c4 -94 22 -89 22 6 0 48 -4 69 -12 69 -10 0 -12 -20 -10
-75z"/>
<path d="M4562 1321 c9 -15 9 -23 -1 -34 -9 -11 -9 -17 -1 -22 7 -4 10 -20 8
-36 -5 -31 8 -34 26 -6 8 12 5 21 -8 36 -11 12 -14 21 -8 21 18 0 14 47 -4 54
-24 9 -25 8 -12 -13z"/>
<path d="M2190 1255 c0 -43 4 -75 10 -75 6 0 10 32 10 75 0 43 -4 75 -10 75
-6 0 -10 -32 -10 -75z"/>
<path d="M2240 1315 c7 -8 10 -26 8 -40 -6 -30 7 -33 22 -4 9 16 8 25 -6 40
-20 22 -42 26 -24 4z"/>
<path d="M2300 1255 c0 -43 4 -75 10 -75 6 0 10 32 10 75 0 43 -4 75 -10 75
-6 0 -10 -32 -10 -75z"/>
<path d="M2352 1310 c10 -15 10 -24 1 -39 -6 -10 -8 -22 -3 -27 5 -5 10 -20
12 -33 1 -14 9 -26 15 -29 15 -4 6 59 -9 69 -5 3 -2 12 7 19 19 16 19 25 -1
44 -22 23 -37 20 -22 -4z"/>
<path d="M2430 1255 c0 -43 4 -75 10 -75 6 0 10 32 10 75 0 43 -4 75 -10 75
-6 0 -10 -32 -10 -75z"/>
<path d="M2511 1293 c67 -111 73 -119 77 -97 4 27 -63 134 -84 134 -13 0 -12
-7 7 -37z"/>
<path d="M2636 1308 c-22 -31 -20 -84 4 -108 25 -25 49 -27 27 -2 -20 22 -23
102 -5 120 9 9 9 12 1 12 -7 0 -19 -10 -27 -22z"/>
<path d="M2745 1260 c0 -49 4 -70 13 -70 8 0 12 21 12 70 0 49 -4 70 -12 70
-9 0 -13 -21 -13 -70z"/>
<path d="M2825 1320 c3 -5 8 -10 11 -10 2 0 4 5 4 10 0 6 -5 10 -11 10 -5 0
-7 -4 -4 -10z"/>
<path d="M3016 1308 c-21 -30 -20 -71 2 -97 17 -21 17 -20 17 49 0 38 -1 70
-2 70 -1 0 -9 -10 -17 -22z"/>
<path d="M3080 1294 c6 -24 6 -54 0 -73 -10 -35 -4 -40 16 -13 20 25 17 76 -5
103 l-20 24 9 -41z"/>
<path d="M3138 1260 c5 -91 22 -91 22 0 0 49 -4 70 -12 70 -10 0 -12 -19 -10
-70z"/>
<path d="M3215 1320 c3 -5 8 -10 11 -10 2 0 4 5 4 10 0 6 -5 10 -11 10 -5 0
-7 -4 -4 -10z"/>
<path d="M3304 1294 c-15 -35 -12 -66 8 -91 16 -20 30 -15 18 6 -5 11 -10 34
-10 51 0 17 5 40 10 51 8 13 7 19 0 19 -6 0 -18 -16 -26 -36z"/>
<path d="M3381 1314 c0 -11 3 -14 6 -6 3 7 2 16 -1 19 -3 4 -6 -2 -5 -13z"/>
<path d="M3430 1260 c0 -56 3 -70 15 -70 12 0 15 14 15 70 0 56 -3 70 -15 70
-12 0 -15 -14 -15 -70z"/>
<path d="M3515 1320 c3 -5 8 -10 11 -10 2 0 4 5 4 10 0 6 -5 10 -11 10 -5 0
-7 -4 -4 -10z"/>
<path d="M3552 1260 c2 -48 7 -70 16 -70 8 0 12 21 12 70 0 57 -3 70 -16 70
-13 0 -15 -12 -12 -70z"/>
<path d="M3616 1306 c4 -17 0 -27 -13 -35 -10 -6 -13 -11 -6 -11 7 0 16 -14
21 -32 11 -42 30 -48 24 -8 -2 17 -8 33 -13 36 -5 3 -3 13 3 23 12 20 5 51
-12 51 -6 0 -8 -10 -4 -24z"/>
<path d="M3708 1264 c22 -55 27 -62 34 -44 4 11 3 29 -2 38 -6 9 -14 29 -20
45 -5 15 -16 27 -24 27 -11 0 -9 -14 12 -66z"/>
<path d="M2706 1305 c4 -8 8 -15 10 -15 2 0 4 7 4 15 0 8 -4 15 -10 15 -5 0
-7 -7 -4 -15z"/>
<path d="M4340 1305 c0 -3 17 -31 38 -62 32 -49 37 -53 40 -33 2 12 0 25 -5
29 -5 3 -19 21 -32 39 -20 28 -41 42 -41 27z"/>
<path d="M2790 1260 c0 -5 5 -10 10 -10 6 0 10 5 10 10 0 6 -4 10 -10 10 -5 0
-10 -4 -10 -10z"/>
<path d="M3485 1260 c3 -5 8 -10 11 -10 2 0 4 5 4 10 0 6 -5 10 -11 10 -5 0
-7 -4 -4 -10z"/>
<path d="M3380 1237 c0 -13 -6 -29 -12 -36 -11 -11 -10 -13 5 -7 10 3 21 6 23
6 2 0 4 14 4 30 0 17 -4 30 -10 30 -5 0 -10 -10 -10 -23z"/>
<path d="M2707 1215 c-4 -8 -2 -17 3 -20 6 -4 10 3 10 14 0 25 -6 27 -13 6z"/>
<path d="M3515 1200 c-3 -5 -1 -10 4 -10 6 0 11 5 11 10 0 6 -2 10 -4 10 -3 0
-8 -4 -11 -10z"/>
</g>
</svg>
